<svg width="21" height="54" viewBox="0 0 21 54" fill="none" xmlns="http://www.w3.org/2000/svg"><g opacity=".5" fill="#EAE7DD"><rect x=".671875" y="50.7617" width="20" height="3"/><rect x=".671875" y="48.7617" width="20" height="1"/><rect x=".671875" y="44.7617" width="20" height="2"/><rect x=".671875" y="42.7617" width="20" height="1"/><rect x=".671875" y="40.7617" width="20" height="1"/><rect x=".671875" y="34.7617" width="20" height="3"/><rect x=".671875" y="32.7617" width="20" height="1"/><rect x=".671875" y="29.7617" width="20" height="2"/><rect x=".671875" y="26.7617" width="20" height="2"/><rect x=".671875" y="23.7617" width="20" height="1"/><rect x=".671875" y="16.7617" width="20" height="4"/><rect x=".671875" y="12.7617" width="20" height="1"/><rect x=".671875" y="10.7617" width="20" height="1"/><rect x=".671875" y="8.76172" width="20" height="1"/><rect x=".671875" y="3.76172" width="20" height="3"/><rect x=".671875" y=".761719" width="20" height="1"/></g></svg>